<svg width="13" height="11" viewBox="0 0 13 11" fill="none" xmlns="http://www.w3.org/2000/svg">
<path d="M13 4.00781C12.7824 4.24721 12.5357 4.45759 12.2746 4.63895C11.0631 5.45871 9.84431 6.28571 8.66183 7.14174C8.05246 7.59152 7.29799 8.14286 6.50726 8.14286H6.5H6.49275C5.70201 8.14286 4.94754 7.59152 4.33817 7.14174C3.15569 6.27846 1.93694 5.45871 0.732701 4.63895C0.464286 4.45759 0.217634 4.24721 0 4.00781V9.76786C0 10.4062 0.522321 10.9286 1.16071 10.9286H11.8393C12.4777 10.9286 13 10.4062 13 9.76786V4.00781ZM13 1.875C13 1.23661 12.4704 0.714285 11.8393 0.714285H1.16071C0.384487 0.714285 0 1.32366 0 2.0346C0 2.69475 0.732701 3.51451 1.24777 3.86272C2.37221 4.64621 3.51116 5.42969 4.6356 6.22042C5.10714 6.54688 5.90513 7.21429 6.49275 7.21429H6.5H6.50726C7.09487 7.21429 7.89286 6.54688 8.3644 6.22042C9.48884 5.42969 10.6278 4.64621 11.7595 3.86272C12.3979 3.4202 13 2.6875 13 1.875Z" fill="black"/>
</svg>
