<svg width="87" height="21" viewBox="0 0 87 21" fill="none" xmlns="http://www.w3.org/2000/svg">
<path d="M10.7734 0.290178C10.442 0.241071 9.30022 0.142856 7.97433 0.142856C5.19978 0.142856 3.29688 1.83705 3.29688 4.94308V7.61942H0.166295V11.2533H3.29688V20.5714H7.05357V11.2533H10.1719L10.6507 7.61942H7.05357V5.29911C7.05357 4.25558 7.33594 3.53125 8.84598 3.53125H10.7734V0.290178ZM49.0568 5.15178C48.3447 5.4587 47.5713 5.67969 46.7733 5.76562C47.5958 5.27455 48.2219 4.50112 48.5166 3.58036C47.7554 4.0346 46.896 4.36607 45.9998 4.53795C45.2755 3.76451 44.2443 3.28571 43.1025 3.28571C40.905 3.28571 39.1371 5.06585 39.1371 7.25112C39.1371 7.55803 39.1739 7.86495 39.2353 8.1596C35.9451 7.98772 33.011 6.41629 31.059 4.01004C30.7152 4.59933 30.5188 5.27455 30.5188 6.01116C30.5188 7.38616 31.2186 8.60156 32.2867 9.31362C31.636 9.28906 31.0222 9.10491 30.4943 8.81027C30.4943 8.82254 30.4943 8.8471 30.4943 8.85937C30.4943 10.7868 31.857 12.3828 33.6739 12.7511C33.3425 12.8371 32.9864 12.8862 32.6304 12.8862C32.3726 12.8862 32.1271 12.8616 31.8815 12.8248C32.3849 14.3962 33.8458 15.5379 35.5891 15.5748C34.2264 16.6429 32.5199 17.269 30.6661 17.269C30.3347 17.269 30.0277 17.2567 29.7085 17.2199C31.4641 18.3493 33.5512 19 35.7978 19C43.0902 19 47.0802 12.9598 47.0802 7.71763C47.0802 7.54576 47.0802 7.37388 47.0679 7.20201C47.8414 6.63728 48.5166 5.9375 49.0568 5.15178ZM79.7714 11.1429C79.7714 12.8739 78.3596 14.2857 76.6286 14.2857C74.8975 14.2857 73.4857 12.8739 73.4857 11.1429C73.4857 9.41183 74.8975 8 76.6286 8C78.3596 8 79.7714 9.41183 79.7714 11.1429ZM81.4656 11.1429C81.4656 8.46652 79.3049 6.3058 76.6286 6.3058C73.9522 6.3058 71.7915 8.46652 71.7915 11.1429C71.7915 13.8192 73.9522 15.9799 76.6286 15.9799C79.3049 15.9799 81.4656 13.8192 81.4656 11.1429ZM82.7915 6.10938C82.7915 5.48326 82.2882 4.97991 81.6621 4.97991C81.0359 4.97991 80.5326 5.48326 80.5326 6.10938C80.5326 6.73549 81.0359 7.23884 81.6621 7.23884C82.2882 7.23884 82.7915 6.73549 82.7915 6.10938ZM76.6286 3.40848C78.0036 3.40848 80.95 3.29799 82.19 3.78906C82.6196 3.96094 82.9388 4.16964 83.2703 4.50112C83.6018 4.83259 83.8105 5.15178 83.9824 5.58147C84.4734 6.82143 84.3629 9.76786 84.3629 11.1429C84.3629 12.5179 84.4734 15.4643 83.9824 16.7042C83.8105 17.1339 83.6018 17.4531 83.2703 17.7846C82.9388 18.1161 82.6196 18.3248 82.19 18.4967C80.95 18.9877 78.0036 18.8772 76.6286 18.8772C75.2536 18.8772 72.3071 18.9877 71.0672 18.4967C70.6375 18.3248 70.3183 18.1161 69.9868 17.7846C69.6554 17.4531 69.4466 17.1339 69.2748 16.7042C68.7837 15.4643 68.8942 12.5179 68.8942 11.1429C68.8942 9.76786 68.7837 6.82143 69.2748 5.58147C69.4466 5.15178 69.6554 4.83259 69.9868 4.50112C70.3183 4.16964 70.6375 3.96094 71.0672 3.78906C72.3071 3.29799 75.2536 3.40848 76.6286 3.40848ZM86.0571 11.1429C86.0571 9.84152 86.0694 8.55245 85.9958 7.25112C85.9221 5.74107 85.5783 4.4029 84.4734 3.29799C83.3685 2.19308 82.0304 1.84933 80.5203 1.77567C79.219 1.70201 77.9299 1.71428 76.6286 1.71428C75.3272 1.71428 74.0382 1.70201 72.7368 1.77567C71.2268 1.84933 69.8886 2.19308 68.7837 3.29799C67.6788 4.4029 67.335 5.74107 67.2614 7.25112C67.1877 8.55245 67.2 9.84152 67.2 11.1429C67.2 12.4442 67.1877 13.7333 67.2614 15.0346C67.335 16.5446 67.6788 17.8828 68.7837 18.9877C69.8886 20.0926 71.2268 20.4364 72.7368 20.51C74.0382 20.5837 75.3272 20.5714 76.6286 20.5714C77.9299 20.5714 79.219 20.5837 80.5203 20.51C82.0304 20.4364 83.3685 20.0926 84.4734 18.9877C85.5783 17.8828 85.9221 16.5446 85.9958 15.0346C86.0694 13.7333 86.0571 12.4442 86.0571 11.1429Z" fill="#9E191D"/>
</svg>
